<?xml version="1.0" standalone="no"?>
<!DOCTYPE svg PUBLIC "-//W3C//DTD SVG 20010904//EN"
 "http://www.w3.org/TR/2001/REC-SVG-20010904/DTD/svg10.dtd">
<svg version="1.0" xmlns="http://www.w3.org/2000/svg"
 width="512.000000pt" height="512.000000pt" viewBox="0 0 512.000000 512.000000"
 preserveAspectRatio="xMidYMid meet">

<g transform="translate(0.000000,512.000000) scale(0.100000,-0.100000)"
fill="#000000" stroke="none">
<path d="M1099 4661 l-29 -29 0 -255 c0 -240 1 -256 20 -280 30 -38 80 -52
123 -33 63 26 67 45 67 311 0 203 -2 241 -17 265 -34 58 -116 68 -164 21z"/>
<path d="M3894 4679 c-49 -25 -54 -50 -54 -304 0 -266 4 -285 67 -311 43 -19
93 -5 123 33 19 24 20 40 20 280 l0 255 -29 29 c-31 31 -84 38 -127 18z"/>
<path d="M740 4464 c-116 -31 -214 -115 -271 -229 l-34 -70 0 -1605 0 -1605
34 -70 c38 -76 103 -148 171 -188 103 -60 -1 -57 1920 -57 1921 0 1817 -3
1920 57 68 40 133 112 171 188 l34 70 3 1584 c3 1763 7 1633 -67 1748 -66 102
-178 173 -300 189 l-51 7 0 -107 0 -106 28 -5 c58 -12 117 -51 147 -100 l30
-48 3 -244 3 -243 -1921 0 -1921 0 3 243 3 244 30 48 c30 49 89 88 148 100
l27 5 0 105 0 105 -27 -1 c-16 0 -53 -7 -83 -15z m3740 -2248 l0 -1194 -28
-53 c-20 -39 -41 -62 -77 -84 l-48 -30 -1767 0 -1767 0 -48 30 c-36 22 -57 45
-77 84 l-28 53 0 1194 0 1194 1920 0 1920 0 0 -1194z"/>
<path d="M1008 2978 c-21 -5 -58 -28 -83 -50 -64 -57 -78 -109 -73 -286 4
-152 17 -195 78 -245 52 -45 86 -49 372 -45 l266 3 44 30 c23 17 54 51 68 75
22 40 25 59 29 175 4 166 -7 219 -60 279 -61 69 -95 76 -373 75 -127 -1 -248
-6 -268 -11z m482 -313 l0 -105 -210 0 -210 0 0 105 0 105 210 0 210 0 0 -105z"/>
<path d="M2288 2978 c-21 -5 -58 -28 -83 -50 -64 -57 -78 -109 -73 -286 4
-152 17 -195 78 -245 52 -45 86 -49 372 -45 l266 3 44 30 c23 17 54 51 68 75
22 40 25 59 29 175 4 166 -7 219 -60 279 -61 69 -95 76 -373 75 -127 -1 -248
-6 -268 -11z m482 -313 l0 -105 -210 0 -210 0 0 105 0 105 210 0 210 0 0 -105z"/>
<path d="M3568 2978 c-21 -5 -58 -28 -83 -50 -64 -57 -78 -109 -73 -286 4
-152 17 -195 78 -245 52 -45 86 -49 372 -45 l266 3 44 30 c23 17 54 51 68 75
22 40 25 59 29 175 4 166 -7 219 -60 279 -61 69 -95 76 -373 75 -127 -1 -248
-6 -268 -11z m482 -313 l0 -105 -210 0 -210 0 0 105 0 105 210 0 210 0 0 -105z"/>
<path d="M969 1892 c-39 -20 -62 -41 -84 -77 l-30 -48 0 -167 0 -167 30 -48
c22 -36 45 -57 84 -77 l53 -28 258 0 258 0 53 28 c39 20 62 41 84 77 l30 48 0
167 0 167 -30 48 c-22 36 -45 57 -84 77 l-53 28 -258 0 -258 0 -53 -28z m521
-292 l0 -110 -210 0 -210 0 0 110 0 110 210 0 210 0 0 -110z"/>
<path d="M2249 1892 c-39 -20 -62 -41 -84 -77 l-30 -48 0 -167 0 -167 30 -48
c22 -36 45 -57 84 -77 l53 -28 258 0 258 0 53 28 c39 20 62 41 84 77 l30 48 0
167 0 167 -30 48 c-22 36 -45 57 -84 77 l-53 28 -258 0 -258 0 -53 -28z m521
-292 l0 -110 -210 0 -210 0 0 110 0 110 210 0 210 0 0 -110z"/>
<path d="M3529 1892 c-39 -20 -62 -41 -84 -77 l-30 -48 0 -167 0 -167 30 -48
c22 -36 45 -57 84 -77 l53 -28 258 0 258 0 53 28 c39 20 62 41 84 77 l30 48 0
167 0 167 -30 48 c-22 36 -45 57 -84 77 l-53 28 -258 0 -258 0 -53 -28z m521
-292 l0 -110 -210 0 -210 0 0 110 0 110 210 0 210 0 0 -110z"/>
<path d="M1490 4375 l0 -105 1070 0 1070 0 0 105 0 105 -1070 0 -1070 0 0
-105z"/>
</g>
</svg>
